<svg width="20" height="20" viewBox="0 0 20 20" fill="none" xmlns="http://www.w3.org/2000/svg">
<path d="M10 20.0002C8.61667 20.0002 7.31667 19.7377 6.1 19.2127C4.88333 18.6877 3.825 17.9752 2.925 17.0752C2.025 16.1752 1.3125 15.1169 0.7875 13.9002C0.2625 12.6836 0 11.3836 0 10.0002C0 8.61691 0.2625 7.31691 0.7875 6.10024C1.3125 4.88358 2.025 3.82524 2.925 2.92524C3.825 2.02524 4.88333 1.31274 6.1 0.787744C7.31667 0.262744 8.61667 0.000244141 10 0.000244141C11.3833 0.000244141 12.6833 0.262744 13.9 0.787744C15.1167 1.31274 16.175 2.02524 17.075 2.92524C17.975 3.82524 18.6875 4.88358 19.2125 6.10024C19.7375 7.31691 20 8.61691 20 10.0002C20 11.3836 19.7375 12.6836 19.2125 13.9002C18.6875 15.1169 17.975 16.1752 17.075 17.0752C16.175 17.9752 15.1167 18.6877 13.9 19.2127C12.6833 19.7377 11.3833 20.0002 10 20.0002ZM10 18.0002C10.9 18.0002 11.7667 17.8544 12.6 17.5627C13.4333 17.2711 14.2 16.8502 14.9 16.3002L3.7 5.10024C3.15 5.80024 2.72917 6.56691 2.4375 7.40024C2.14583 8.23358 2 9.10024 2 10.0002C2 12.2336 2.775 14.1252 4.325 15.6752C5.875 17.2252 7.76667 18.0002 10 18.0002ZM16.3 14.9002C16.85 14.2002 17.2708 13.4336 17.5625 12.6002C17.8542 11.7669 18 10.9002 18 10.0002C18 7.76691 17.225 5.87524 15.675 4.32524C14.125 2.77524 12.2333 2.00024 10 2.00024C9.1 2.00024 8.23333 2.14608 7.4 2.43774C6.56667 2.72941 5.8 3.15024 5.1 3.70024L16.3 14.9002Z" fill="#1F1F1F"/>
</svg>
