<svg width="18" height="19" viewBox="0 0 18 19" fill="none" xmlns="http://www.w3.org/2000/svg">
<path d="M10.875 5.715H13.125M13.125 5.715H15.375M13.125 5.715V7.965M13.125 5.715V3.465" stroke="white" stroke-width="1.125" stroke-linecap="round"/>
<path d="M1.875 5.715C1.875 4.3005 1.875 3.594 2.3145 3.1545C2.754 2.715 3.4605 2.715 4.875 2.715C6.2895 2.715 6.996 2.715 7.4355 3.1545C7.875 3.594 7.875 4.3005 7.875 5.715C7.875 7.1295 7.875 7.836 7.4355 8.2755C6.996 8.715 6.2895 8.715 4.875 8.715C3.4605 8.715 2.754 8.715 2.3145 8.2755C1.875 7.836 1.875 7.1295 1.875 5.715ZM10.125 13.965C10.125 12.5505 10.125 11.844 10.5645 11.4045C11.004 10.965 11.7105 10.965 13.125 10.965C14.5395 10.965 15.246 10.965 15.6855 11.4045C16.125 11.844 16.125 12.5505 16.125 13.965C16.125 15.3795 16.125 16.086 15.6855 16.5255C15.246 16.965 14.5395 16.965 13.125 16.965C11.7105 16.965 11.004 16.965 10.5645 16.5255C10.125 16.086 10.125 15.3795 10.125 13.965Z" stroke="white" stroke-width="1.125"/>
<path opacity="0.5" d="M1.875 13.965C1.875 12.5505 1.875 11.844 2.3145 11.4045C2.754 10.965 3.4605 10.965 4.875 10.965C6.2895 10.965 6.996 10.965 7.4355 11.4045C7.875 11.844 7.875 12.5505 7.875 13.965C7.875 15.3795 7.875 16.086 7.4355 16.5255C6.996 16.965 6.2895 16.965 4.875 16.965C3.4605 16.965 2.754 16.965 2.3145 16.5255C1.875 16.086 1.875 15.3795 1.875 13.965Z" stroke="white" stroke-width="1.125"/>
</svg>
