<svg width="16" height="16" viewBox="0 0 16 16" fill="none" xmlns="http://www.w3.org/2000/svg">
<path d="M2 16.0002C1.45 16.0002 0.979167 15.8044 0.5875 15.4127C0.195833 15.0211 0 14.5502 0 14.0002C0 13.4502 0.195833 12.9794 0.5875 12.5877C0.979167 12.1961 1.45 12.0002 2 12.0002C2.55 12.0002 3.02083 12.1961 3.4125 12.5877C3.80417 12.9794 4 13.4502 4 14.0002C4 14.5502 3.80417 15.0211 3.4125 15.4127C3.02083 15.8044 2.55 16.0002 2 16.0002ZM8 16.0002C7.45 16.0002 6.97917 15.8044 6.5875 15.4127C6.19583 15.0211 6 14.5502 6 14.0002C6 13.4502 6.19583 12.9794 6.5875 12.5877C6.97917 12.1961 7.45 12.0002 8 12.0002C8.55 12.0002 9.02083 12.1961 9.4125 12.5877C9.80417 12.9794 10 13.4502 10 14.0002C10 14.5502 9.80417 15.0211 9.4125 15.4127C9.02083 15.8044 8.55 16.0002 8 16.0002ZM14 16.0002C13.45 16.0002 12.9792 15.8044 12.5875 15.4127C12.1958 15.0211 12 14.5502 12 14.0002C12 13.4502 12.1958 12.9794 12.5875 12.5877C12.9792 12.1961 13.45 12.0002 14 12.0002C14.55 12.0002 15.0208 12.1961 15.4125 12.5877C15.8042 12.9794 16 13.4502 16 14.0002C16 14.5502 15.8042 15.0211 15.4125 15.4127C15.0208 15.8044 14.55 16.0002 14 16.0002ZM2 10.0002C1.45 10.0002 0.979167 9.80441 0.5875 9.41274C0.195833 9.02108 0 8.55024 0 8.00024C0 7.45024 0.195833 6.97941 0.5875 6.58774C0.979167 6.19608 1.45 6.00024 2 6.00024C2.55 6.00024 3.02083 6.19608 3.4125 6.58774C3.80417 6.97941 4 7.45024 4 8.00024C4 8.55024 3.80417 9.02108 3.4125 9.41274C3.02083 9.80441 2.55 10.0002 2 10.0002ZM8 10.0002C7.45 10.0002 6.97917 9.80441 6.5875 9.41274C6.19583 9.02108 6 8.55024 6 8.00024C6 7.45024 6.19583 6.97941 6.5875 6.58774C6.97917 6.19608 7.45 6.00024 8 6.00024C8.55 6.00024 9.02083 6.19608 9.4125 6.58774C9.80417 6.97941 10 7.45024 10 8.00024C10 8.55024 9.80417 9.02108 9.4125 9.41274C9.02083 9.80441 8.55 10.0002 8 10.0002ZM14 10.0002C13.45 10.0002 12.9792 9.80441 12.5875 9.41274C12.1958 9.02108 12 8.55024 12 8.00024C12 7.45024 12.1958 6.97941 12.5875 6.58774C12.9792 6.19608 13.45 6.00024 14 6.00024C14.55 6.00024 15.0208 6.19608 15.4125 6.58774C15.8042 6.97941 16 7.45024 16 8.00024C16 8.55024 15.8042 9.02108 15.4125 9.41274C15.0208 9.80441 14.55 10.0002 14 10.0002ZM2 4.00024C1.45 4.00024 0.979167 3.80441 0.5875 3.41274C0.195833 3.02108 0 2.55024 0 2.00024C0 1.45024 0.195833 0.979411 0.5875 0.587744C0.979167 0.196077 1.45 0.000244141 2 0.000244141C2.55 0.000244141 3.02083 0.196077 3.4125 0.587744C3.80417 0.979411 4 1.45024 4 2.00024C4 2.55024 3.80417 3.02108 3.4125 3.41274C3.02083 3.80441 2.55 4.00024 2 4.00024ZM8 4.00024C7.45 4.00024 6.97917 3.80441 6.5875 3.41274C6.19583 3.02108 6 2.55024 6 2.00024C6 1.45024 6.19583 0.979411 6.5875 0.587744C6.97917 0.196077 7.45 0.000244141 8 0.000244141C8.55 0.000244141 9.02083 0.196077 9.4125 0.587744C9.80417 0.979411 10 1.45024 10 2.00024C10 2.55024 9.80417 3.02108 9.4125 3.41274C9.02083 3.80441 8.55 4.00024 8 4.00024ZM14 4.00024C13.45 4.00024 12.9792 3.80441 12.5875 3.41274C12.1958 3.02108 12 2.55024 12 2.00024C12 1.45024 12.1958 0.979411 12.5875 0.587744C12.9792 0.196077 13.45 0.000244141 14 0.000244141C14.55 0.000244141 15.0208 0.196077 15.4125 0.587744C15.8042 0.979411 16 1.45024 16 2.00024C16 2.55024 15.8042 3.02108 15.4125 3.41274C15.0208 3.80441 14.55 4.00024 14 4.00024Z" fill="#1F1F1F"/>
</svg>
